<?xml version="1.0" standalone="no"?>
<!DOCTYPE svg PUBLIC "-//W3C//DTD SVG 20010904//EN"
 "http://www.w3.org/TR/2001/REC-SVG-20010904/DTD/svg10.dtd">
<svg version="1.0" xmlns="http://www.w3.org/2000/svg"
 width="500.000000pt" height="179.000000pt" viewBox="0 0 500.000000 179.000000"
 preserveAspectRatio="xMidYMid meet">

<g transform="translate(0.000000,179.000000) scale(0.100000,-0.100000)"
fill="#000000" stroke="none">
<path d="M227 1783 c-4 -3 -7 -406 -7 -895 l0 -888 585 0 585 0 0 895 0 895
-578 0 c-318 0 -582 -3 -585 -7z m366 -335 c9 -7 120 -195 247 -418 127 -223
234 -408 238 -412 4 -4 4 37 0 92 -5 54 -7 244 -6 422 l3 323 103 3 102 3 0
-561 0 -560 -137 0 -138 1 -234 414 c-128 228 -234 415 -235 415 0 0 0 -187 2
-415 l4 -415 -106 0 -106 0 0 560 0 560 123 0 c83 0 129 -4 140 -12z"/>
<path d="M4530 890 l0 -890 150 0 150 0 0 890 0 890 -150 0 -150 0 0 -890z
m230 634 c0 -64 -23 -73 -28 -10 -4 49 -35 48 -40 -2 -4 -43 -22 -41 -22 3 0
31 -3 35 -25 35 -16 0 -25 6 -25 15 0 12 14 15 70 15 l70 0 0 -56z m0 -79 c0
-16 -2 -16 -62 -19 -82 -4 -78 -53 4 -58 39 -2 53 -7 53 -18 0 -22 -80 -26
-111 -5 -17 11 -24 25 -24 48 0 54 15 65 93 66 35 1 47 -3 47 -14z m-110 -164
c-12 -29 -8 -51 10 -51 5 0 13 14 18 32 10 39 35 57 60 42 23 -15 28 -77 7
-94 -22 -18 -31 -5 -16 24 13 24 8 46 -9 46 -5 0 -13 -12 -16 -27 -9 -39 -23
-53 -49 -53 -26 0 -35 17 -35 65 0 22 6 37 17 44 25 13 28 7 13 -28z m48 -123
c84 -30 82 -51 -8 -84 -36 -13 -66 -24 -67 -24 -11 -1 0 32 12 36 9 4 15 19
15 35 0 19 -5 29 -15 29 -8 0 -15 7 -15 15 0 20 4 19 78 -7z m42 -138 c22 -22
27 -79 8 -98 -21 -21 -28 -13 -22 27 5 32 3 41 -13 50 -41 21 -83 -12 -67 -53
8 -20 24 -21 24 -1 0 8 5 15 10 15 6 0 10 -13 10 -30 0 -25 -4 -30 -25 -30
-29 0 -45 26 -45 74 0 60 76 90 120 46z m-42 -162 c84 -30 82 -51 -8 -84 -36
-13 -66 -24 -67 -24 -11 -1 0 32 12 36 9 4 15 19 15 35 0 19 -5 29 -15 29 -8
0 -15 7 -15 15 0 20 4 19 78 -7z m-38 -128 c0 -6 -5 -19 -12 -29 -12 -20 -5
-51 11 -51 6 0 15 18 21 39 11 40 29 55 55 45 31 -12 31 -104 0 -104 -17 0
-20 26 -5 35 15 9 12 35 -5 35 -8 0 -18 -14 -23 -32 -17 -67 -74 -62 -80 6 -3
36 10 66 29 66 5 0 9 -5 9 -10z m100 -145 c0 -11 -13 -15 -54 -15 -41 0 -55
-4 -60 -16 -11 -28 13 -44 65 -44 37 0 49 -4 49 -15 0 -22 -103 -21 -124 1
-19 18 -21 75 -4 92 7 7 38 12 70 12 45 0 58 -3 58 -15z m-16 -147 c20 -28 20
-68 2 -94 -19 -26 -31 -12 -18 24 13 38 -1 62 -36 62 -47 0 -70 -43 -37 -70
13 -10 15 -9 15 9 0 11 5 21 10 21 6 0 10 -13 10 -30 0 -26 -3 -30 -29 -30
-32 0 -41 14 -41 63 0 43 25 67 71 67 28 0 42 -6 53 -22z m-39 -157 c74 -28
72 -50 -7 -79 -75 -26 -78 -26 -78 -7 0 8 7 15 15 15 10 0 15 10 15 29 0 16
-6 31 -15 35 -8 3 -15 13 -15 21 0 18 3 17 85 -14z"/>
<path d="M4680 1116 c0 -9 7 -12 20 -9 11 3 17 9 14 14 -8 14 -34 10 -34 -5z"/>
<path d="M4680 816 c0 -9 7 -12 20 -9 11 3 17 9 14 14 -8 14 -34 10 -34 -5z"/>
<path d="M4680 244 c0 -15 26 -19 34 -5 3 5 -3 11 -14 14 -13 3 -20 0 -20 -9z"/>
<path d="M1611 1453 c-56 -20 -115 -81 -135 -140 -19 -54 -21 -155 -5 -219 16
-62 85 -137 146 -158 26 -9 78 -16 117 -16 167 0 266 107 266 284 0 121 -69
225 -169 254 -53 16 -167 14 -220 -5z m204 -88 c54 -31 75 -80 75 -174 0 -121
-59 -191 -160 -191 -103 0 -163 74 -162 200 0 54 5 79 24 111 44 79 141 102
223 54z"/>
<path d="M2763 1459 c-13 -5 -42 -74 -97 -225 -43 -121 -87 -240 -97 -266
l-19 -48 55 0 54 0 22 70 23 70 111 0 111 0 23 -70 22 -70 54 0 54 0 -19 53
c-11 28 -55 149 -98 267 l-79 215 -51 5 c-29 3 -60 3 -69 -1z m98 -200 c21
-62 39 -114 39 -116 0 -2 -38 -3 -84 -3 l-85 0 41 121 c22 66 42 118 45 115 2
-2 22 -55 44 -117z"/>
<path d="M3160 1193 l0 -273 55 0 55 0 0 105 0 106 72 -3 72 -3 61 -100 62
-100 62 -3 61 -3 -70 109 c-38 60 -70 113 -70 119 0 5 15 16 32 24 102 45 106
212 6 266 -27 15 -65 19 -216 23 l-182 5 0 -272z m330 177 c30 -16 42 -66 26
-105 -18 -42 -58 -55 -168 -55 l-78 0 0 85 0 85 101 0 c55 0 109 -4 119 -10z"/>
<path d="M4130 1460 c-7 -4 -200 -522 -200 -536 0 -3 23 -4 52 -2 l51 3 25 68
25 67 108 0 108 0 21 -57 c11 -32 23 -64 25 -70 3 -8 24 -13 56 -13 37 0 50 4
47 13 -3 6 -46 128 -98 269 l-92 256 -60 4 c-33 2 -64 1 -68 -2z m103 -193
c20 -62 37 -116 37 -120 0 -4 -36 -7 -80 -7 -44 0 -80 3 -80 7 0 15 75 233 80
233 3 0 22 -51 43 -113z"/>
<path d="M2050 1420 l0 -40 90 0 90 0 0 -230 0 -230 55 0 55 0 0 230 0 230 85
0 85 0 0 40 0 40 -230 0 -230 0 0 -40z"/>
<path d="M3740 1190 l0 -270 50 0 50 0 0 270 0 270 -50 0 -50 0 0 -270z"/>
<path d="M1500 485 l0 -225 45 0 45 0 0 79 0 78 85 5 c55 4 97 12 121 25 98
51 97 208 -1 249 -24 10 -74 14 -165 14 l-130 0 0 -225z m259 141 c14 -13 21
-31 21 -57 0 -57 -34 -79 -121 -79 l-69 0 0 81 0 81 74 -4 c55 -2 80 -8 95
-22z"/>
<path d="M1950 485 l0 -225 40 0 39 0 3 88 3 87 59 0 59 0 55 -87 54 -88 49 0
48 0 -59 92 c-33 51 -60 95 -60 98 0 3 14 11 31 19 41 18 74 88 63 134 -19 90
-59 107 -243 107 l-141 0 0 -225z m250 156 c33 -9 55 -50 46 -85 -10 -39 -60
-58 -144 -54 l-67 3 -3 59 c-4 85 -3 86 75 85 37 -1 79 -4 93 -8z"/>
<path d="M2420 485 l0 -225 45 0 45 0 0 225 0 225 -45 0 -45 0 0 -225z"/>
<path d="M2610 485 l0 -225 41 0 42 0 -5 185 c-3 102 -2 183 0 180 3 -3 20
-51 37 -108 87 -281 77 -257 111 -257 l30 0 53 168 c29 92 56 176 61 187 5 12
9 -55 9 -167 l1 -188 35 0 35 0 0 225 0 225 -58 0 -58 0 -49 -157 c-51 -165
-64 -201 -65 -172 0 9 -22 85 -49 170 l-49 154 -61 3 -61 3 0 -226z"/>
<path d="M3160 485 l0 -225 186 0 185 0 -4 33 -3 32 -137 3 -137 3 0 64 0 65
120 0 120 0 0 30 0 30 -120 0 -120 0 0 65 0 65 130 0 130 0 0 30 0 30 -175 0
-175 0 0 -225z"/>
<path d="M3600 485 l0 -225 45 0 45 0 0 90 0 90 60 0 59 0 53 -90 53 -90 48 0
c26 0 47 2 47 5 0 2 -25 42 -55 89 -30 46 -55 89 -55 94 0 6 9 13 20 17 38 12
70 63 70 111 0 109 -46 134 -250 134 l-140 0 0 -225z m259 154 c39 -14 54 -47
40 -88 -13 -37 -50 -51 -140 -51 l-69 0 0 75 0 75 69 0 c37 0 83 -5 100 -11z"/>
<path d="M4211 688 c-101 -279 -151 -417 -151 -422 0 -4 19 -6 42 -4 41 3 42
4 62 61 l21 57 91 0 91 0 18 -60 18 -60 44 0 c23 0 43 2 43 4 0 4 -77 215
-146 404 l-16 42 -54 0 c-47 0 -56 -3 -63 -22z m98 -134 c17 -50 31 -96 31
-103 0 -7 -23 -11 -65 -11 -45 0 -65 4 -65 13 0 14 62 199 65 195 2 -2 17 -44
34 -94z"/>
</g>
</svg>
