<?xml version="1.0" standalone="no"?>
<!DOCTYPE svg PUBLIC "-//W3C//DTD SVG 20010904//EN"
 "http://www.w3.org/TR/2001/REC-SVG-20010904/DTD/svg10.dtd">
<svg version="1.0" xmlns="http://www.w3.org/2000/svg"
 width="1280.000000pt" height="1096.000000pt" viewBox="0 0 1280.000000 1096.000000"
 preserveAspectRatio="xMidYMid meet">

<g transform="translate(0.000000,1096.000000) scale(0.100000,-0.100000)"
fill="#000000" stroke="none">
<path d="M12245 10933 c-22 -9 -98 -38 -170 -66 -680 -262 -1483 -741 -1817
-1083 -155 -160 -295 -390 -337 -556 -29 -114 -44 -268 -36 -383 l6 -100 -25
30 c-36 43 -92 151 -110 215 -20 70 -46 214 -46 258 0 17 -4 32 -8 32 -4 0
-49 -55 -98 -122 -190 -257 -303 -442 -420 -683 -131 -271 -207 -516 -235
-765 -13 -115 -7 -400 11 -484 5 -27 8 -51 6 -53 -10 -10 -65 29 -112 79 -62
66 -89 110 -124 201 l-28 70 -15 -29 c-61 -119 -97 -492 -97 -1014 l0 -291
-51 -127 c-174 -433 -407 -816 -674 -1109 l-75 -82 0 -200 0 -201 1201 0 1200
0 -3 -312 -3 -313 -30 -54 c-16 -29 -49 -71 -74 -92 -97 -85 -274 -147 -392
-136 l-59 5 0 -124 0 -124 998 2 997 3 3 121 3 121 -113 6 c-204 11 -312 49
-391 137 -77 85 -80 103 -84 436 -2 160 -1 299 3 308 6 14 41 16 355 16 l349
0 0 280 0 280 -355 0 -355 0 0 1275 0 1274 -117 -118 c-302 -304 -607 -440
-1043 -466 l-105 -7 215 109 c238 119 368 198 528 318 123 92 331 290 439 419
96 114 217 275 211 281 -2 3 -62 -7 -134 -22 -106 -21 -159 -26 -294 -27 -150
-1 -288 9 -277 20 2 3 45 11 96 19 116 19 264 66 366 117 265 133 528 395 722
720 81 137 165 302 155 306 -4 1 -137 -18 -295 -43 -159 -25 -293 -45 -299
-45 -6 0 39 25 101 55 511 251 797 704 966 1530 19 94 35 179 35 188 0 20 -12
20 -65 0z m-1093 -1288 c-372 -380 -583 -622 -829 -949 -534 -713 -1004 -1592
-1428 -2676 l-73 -185 -61 -3 c-34 -2 -61 -1 -61 2 0 13 130 353 225 587 679
1683 1435 2776 2344 3392 63 42 117 77 119 77 2 0 -104 -110 -236 -245z m-932
-3655 l0 -970 -796 0 c-633 0 -795 3 -791 13 2 6 87 191 188 410 l183 397 106
92 c218 192 478 433 902 839 108 104 199 189 202 189 3 0 6 -436 6 -970z"/>
<path d="M6260 7619 c-454 -241 -833 -443 -842 -449 -16 -9 -18 -28 -18 -150
0 -77 4 -140 8 -140 4 0 181 79 392 175 211 96 388 175 392 175 5 0 7 -762 6
-1692 l-3 -1693 -21 -46 c-71 -153 -237 -224 -512 -217 l-132 3 0 -117 0 -118
1100 0 1100 0 0 105 0 105 -123 0 c-251 0 -403 72 -479 228 l-33 67 -5 2101
-5 2101 -825 -438z"/>
<path d="M630 7896 l0 -93 65 -7 c198 -20 355 -118 423 -264 l27 -57 0 -1835
0 -1835 -22 -41 c-65 -122 -197 -185 -390 -188 l-93 -1 0 -102 0 -103 690 0
690 0 0 99 0 98 -112 6 c-182 8 -301 58 -375 155 -67 88 -63 -15 -61 1706 l3
1560 1390 -1807 1390 -1807 232 0 233 0 2 2078 3 2077 28 56 c61 126 226 218
390 219 l37 0 0 85 0 85 -675 0 -675 0 0 -89 0 -88 83 -6 c207 -15 391 -117
453 -251 l24 -53 -2 -1379 -3 -1379 -709 915 c-391 503 -955 1231 -1254 1616
l-544 702 -301 6 c-166 3 -447 8 -624 10 l-323 5 0 -93z"/>
<path d="M7402 2840 l-121 -160 117 0 117 0 159 159 159 159 -155 1 -155 2
-121 -161z"/>
<path d="M810 1865 l0 -735 120 0 120 0 0 429 0 428 237 -241 c131 -132 331
-335 445 -451 l208 -210 0 733 0 732 -120 0 -120 0 0 -427 0 -428 -168 170
c-92 94 -292 297 -445 452 l-277 282 0 -734z"/>
<path d="M5197 2593 c-4 -6 -591 -1392 -614 -1451 -4 -10 22 -12 122 -10 l127
3 61 148 61 147 244 -2 244 -3 61 -147 61 -148 128 0 c70 0 128 3 128 6 0 4
-29 75 -64 158 -35 83 -173 410 -306 726 -134 316 -244 576 -245 578 -2 2 -5
0 -8 -5z m102 -820 c28 -68 51 -125 51 -128 0 -3 -69 -5 -154 -5 l-154 0 63
157 c35 86 70 179 77 206 l12 49 27 -79 c14 -43 49 -133 78 -200z"/>
<path d="M8352 2584 c-5 -10 -136 -318 -290 -684 -154 -366 -290 -687 -301
-713 -12 -27 -21 -51 -21 -53 0 -3 57 -3 126 -2 l126 3 60 148 61 147 244 -2
245 -3 60 -148 61 -147 128 0 c71 0 129 3 129 6 0 4 -433 1034 -605 1438 -12
27 -13 28 -23 10z m117 -838 c22 -55 39 -101 37 -103 -2 -2 -71 -2 -154 -1
l-150 3 48 115 c27 63 61 154 77 202 l28 86 36 -101 c20 -56 55 -147 78 -201z"/>
<path d="M9993 2461 l-273 -136 0 -123 0 -123 155 79 155 79 0 -448 0 -449
-155 0 -155 0 0 -105 0 -105 400 0 400 0 0 105 0 105 -125 0 -125 0 -2 629 -3
628 -272 -136z"/>
<path d="M2775 2565 c-143 -31 -281 -111 -386 -223 -79 -85 -122 -156 -162
-269 -30 -83 -32 -96 -31 -228 0 -123 3 -149 26 -217 41 -122 92 -204 187
-298 96 -95 165 -139 284 -184 78 -29 89 -30 242 -30 147 -1 166 2 238 26 115
39 211 100 304 193 106 107 173 238 199 385 45 260 -55 525 -261 693 -77 63
-220 133 -310 152 -85 18 -249 18 -330 0z m367 -278 c301 -149 372 -550 138
-787 -306 -309 -820 -93 -820 345 0 219 133 401 345 471 26 9 80 13 151 11
105 -2 114 -4 186 -40z"/>
<path d="M3700 2435 l0 -115 180 0 180 0 0 -595 0 -595 130 0 130 0 0 595 0
595 180 0 180 0 0 115 0 115 -490 0 -490 0 0 -115z"/>
<path d="M6010 1840 l0 -710 125 0 125 0 0 285 0 285 108 0 107 -1 174 -284
174 -285 138 0 c77 0 139 3 139 6 0 4 -86 144 -191 311 -105 168 -192 310
-193 318 0 7 16 26 36 42 50 41 83 81 115 144 26 50 28 63 28 169 0 114 -1
117 -38 192 -42 85 -99 143 -182 186 -93 47 -132 52 -407 52 l-258 0 0 -710z
m538 462 c51 -27 98 -89 107 -142 10 -57 -17 -138 -57 -177 -53 -52 -93 -63
-223 -63 l-115 0 0 206 0 206 123 -4 c102 -3 129 -7 165 -26z"/>
<path d="M7280 1840 l0 -710 130 0 130 0 0 710 0 710 -130 0 -130 0 0 -710z"/>
<path d="M10952 2021 c-150 -291 -272 -532 -272 -535 0 -3 153 -6 340 -6 l340
0 0 -175 0 -175 120 0 120 0 0 175 0 175 90 0 90 0 0 105 0 105 -90 0 -90 0 0
205 c0 113 -3 205 -7 204 -5 0 -55 -26 -113 -57 l-105 -57 -3 -148 -3 -147
-164 0 c-91 0 -165 1 -165 3 0 2 99 194 220 427 121 233 220 425 220 427 0 2
-58 3 -128 3 l-129 0 -271 -529z"/>
<path d="M2532 809 c-26 -33 -48 -65 -50 -70 -2 -5 20 -9 50 -9 53 0 54 1 123
70 l69 70 -72 0 -72 0 -48 -61z"/>
<path d="M10652 800 l-52 -70 53 0 c52 0 53 1 122 70 l69 70 -70 0 -70 0 -52
-70z"/>
<path d="M10515 359 c-77 -182 -141 -335 -143 -340 -2 -5 23 -9 55 -9 l58 0
29 70 28 70 113 0 112 0 27 -70 28 -70 59 0 c32 0 59 2 59 5 0 6 -269 643
-279 662 -4 7 -68 -133 -146 -318z m178 -117 c-18 -2 -50 -2 -71 0 l-39 3 35
92 35 93 37 -93 36 -92 -33 -3z"/>
<path d="M2028 667 c-133 -50 -213 -141 -237 -269 -38 -207 125 -398 339 -398
76 0 164 27 206 64 l25 21 -16 65 -16 65 -42 -40 c-69 -65 -155 -81 -237 -44
-92 42 -134 107 -134 209 0 70 22 127 66 166 92 84 243 77 321 -15 l25 -30 16
66 c20 77 18 81 -61 120 -67 32 -194 42 -255 20z"/>
<path d="M3518 667 c-107 -41 -183 -112 -219 -206 -28 -75 -24 -205 10 -269
34 -66 97 -128 160 -159 50 -25 67 -28 156 -28 89 0 106 3 151 27 75 39 78 45
59 120 l-16 63 -43 -41 c-100 -96 -254 -78 -332 38 -75 111 -42 257 73 325 89
52 211 31 276 -47 l26 -31 7 28 c3 15 10 45 16 66 12 48 -2 66 -75 98 -65 28
-194 36 -249 16z"/>
<path d="M5123 666 c-89 -29 -176 -107 -216 -194 -33 -72 -31 -198 4 -273 33
-70 91 -130 161 -165 75 -39 199 -45 279 -15 95 36 182 128 210 223 5 18 10
62 10 98 1 130 -65 237 -183 300 -54 29 -75 34 -143 37 -49 2 -96 -3 -122 -11z
m206 -126 c141 -72 163 -268 42 -372 -147 -125 -364 -23 -364 172 0 171 171
278 322 200z"/>
<path d="M8043 666 c-92 -30 -167 -98 -208 -188 -38 -84 -42 -150 -15 -239 19
-63 30 -81 83 -134 77 -76 144 -105 247 -105 121 0 233 61 296 162 36 56 57
150 49 213 -14 115 -99 231 -203 278 -59 26 -188 33 -249 13z m162 -107 c55
-14 122 -70 146 -123 38 -83 17 -196 -47 -259 -47 -47 -83 -61 -155 -62 -56 0
-73 4 -114 30 -159 98 -130 355 46 410 55 17 70 18 124 4z"/>
<path d="M8819 665 c-151 -48 -248 -194 -237 -354 9 -119 72 -214 180 -271 54
-29 75 -35 149 -38 64 -3 101 0 140 13 104 33 99 24 99 200 l0 155 -125 0
-125 0 0 -50 0 -50 70 0 70 0 0 -70 c0 -66 -1 -71 -26 -80 -38 -15 -130 -12
-172 6 -178 74 -184 338 -9 420 90 41 176 29 250 -36 25 -22 48 -37 50 -33 2
5 10 32 17 61 11 47 10 55 -5 72 -51 57 -228 87 -326 55z"/>
<path d="M9486 661 c-95 -39 -146 -86 -197 -181 -20 -38 -24 -59 -24 -140 0
-89 2 -99 34 -158 39 -71 78 -110 154 -150 47 -24 62 -27 152 -27 118 0 171
21 245 95 74 73 95 127 95 240 0 89 -2 99 -34 158 -37 67 -87 115 -161 153
-64 32 -195 37 -264 10z m221 -119 c78 -41 117 -108 117 -202 0 -202 -224
-301 -372 -166 -72 64 -90 193 -39 278 62 107 187 144 294 90z"/>
<path d="M12263 666 c-89 -29 -176 -107 -216 -194 -33 -71 -31 -198 4 -272 56
-119 165 -191 297 -198 85 -5 144 9 206 48 l43 28 -15 71 -15 71 -31 -33 c-85
-92 -218 -100 -308 -19 -53 48 -78 102 -78 172 0 71 26 126 79 172 49 42 115
62 177 52 49 -7 115 -47 141 -84 17 -24 17 -24 34 45 11 43 14 73 9 80 -5 7
-36 24 -67 40 -69 34 -190 44 -260 21z"/>
<path d="M0 340 l0 -332 163 4 c150 3 166 5 218 30 76 35 133 88 166 156 24
49 28 69 28 142 0 73 -4 93 -28 142 -33 68 -90 121 -166 156 -52 25 -68 27
-218 30 l-163 4 0 -332z m347 190 c148 -83 142 -309 -8 -384 -44 -22 -66 -26
-136 -26 l-83 0 0 221 0 221 93 -4 c73 -3 100 -9 134 -28z"/>
<path d="M700 340 l0 -330 170 0 170 0 0 55 0 55 -115 0 -115 0 0 115 0 115
90 0 90 0 0 50 0 50 -90 0 -90 0 0 60 0 60 115 0 115 0 0 50 0 50 -170 0 -170
0 0 -330z"/>
<path d="M1160 340 l0 -330 165 0 165 0 0 55 0 55 -105 0 -105 0 0 275 0 275
-60 0 -60 0 0 -330z"/>
<path d="M2470 340 l0 -330 60 0 60 0 0 330 0 330 -60 0 -60 0 0 -330z"/>
<path d="M2750 341 l0 -331 60 0 60 0 0 130 0 130 49 0 48 0 79 -130 79 -130
63 0 c34 0 62 3 62 8 0 4 -40 70 -88 146 l-88 140 37 37 c61 61 67 175 15 244
-49 64 -93 79 -243 83 l-133 4 0 -331z m222 219 c76 -22 100 -95 49 -152 -24
-27 -36 -32 -90 -36 l-61 -4 0 101 0 101 33 0 c17 0 49 -5 69 -10z"/>
<path d="M3940 420 c0 -273 4 -296 58 -354 42 -44 98 -66 173 -66 93 0 159 34
199 104 l30 51 0 258 0 257 -55 0 -55 0 0 -219 c0 -120 -3 -232 -6 -250 -20
-96 -147 -123 -201 -42 -22 33 -23 41 -23 272 l0 239 -60 0 -60 0 0 -250z"/>
<path d="M4540 340 l0 -330 165 0 165 0 0 55 0 55 -105 0 -105 0 0 275 0 275
-60 0 -60 0 0 -330z"/>
<path d="M5910 339 l0 -331 163 4 c149 3 166 5 217 29 79 37 125 81 162 157
90 182 -2 391 -199 452 -52 16 -93 20 -204 20 l-139 0 0 -331z m303 210 c49
-13 105 -63 128 -114 38 -83 17 -197 -47 -257 -46 -43 -94 -58 -184 -58 l-80
0 0 220 0 220 73 0 c39 0 89 -5 110 -11z"/>
<path d="M6610 340 l0 -330 170 0 170 0 0 55 0 55 -115 0 -115 0 0 115 0 115
90 0 90 0 0 50 0 50 -90 0 -90 0 0 60 0 60 115 0 115 0 0 50 0 50 -170 0 -170
0 0 -330z"/>
<path d="M7290 339 l0 -331 138 4 c129 3 140 5 185 31 26 15 60 46 74 69 56
84 37 225 -37 278 l-29 21 19 32 c43 70 15 165 -60 204 -38 20 -57 23 -167 23
l-123 0 0 -331z m225 229 c28 -13 40 -45 31 -81 -7 -30 -45 -47 -101 -47 l-45
0 0 70 0 70 45 0 c24 0 56 -5 70 -12z m26 -229 c29 -15 59 -69 59 -104 0 -39
-33 -93 -66 -105 -14 -6 -50 -10 -80 -10 l-54 0 0 121 0 122 60 -6 c34 -4 70
-12 81 -18z"/>
<path d="M9960 615 l0 -55 85 0 85 0 0 -275 0 -275 60 0 60 0 0 275 0 275 80
0 80 0 0 55 0 55 -225 0 -225 0 0 -55z"/>
<path d="M11250 339 l0 -331 163 4 c150 3 166 5 218 30 73 33 134 95 167 166
20 45 26 72 25 132 0 115 -45 201 -136 264 -74 50 -146 66 -304 66 l-133 0 0
-331z m301 210 c189 -57 201 -337 17 -413 -23 -10 -68 -16 -118 -16 l-80 0 0
220 0 220 71 0 c40 0 89 -5 110 -11z"/>
<path d="M11870 118 c-43 -46 -10 -118 55 -118 36 0 75 36 75 70 0 10 -9 29
-21 44 -27 34 -79 36 -109 4z"/>
<path d="M12680 120 c-45 -45 -11 -120 53 -120 20 0 41 8 50 18 23 25 22 85
-1 105 -25 23 -78 21 -102 -3z"/>
</g>
</svg>
