<svg xmlns="http://www.w3.org/2000/svg" xmlns:xlink="http://www.w3.org/1999/xlink" width="1200" zoomAndPan="magnify" viewBox="0 0 900 299.999988" height="400" preserveAspectRatio="xMidYMid meet" version="1.0"><defs><g/><clipPath id="3f68285991"><path d="M 735 8 L 776 8 L 776 78 L 735 78 Z M 735 8 " clip-rule="nonzero"/></clipPath><clipPath id="7a61ee7cf8"><path d="M 829.265625 26.40625 L 805.910156 98.648438 L 720.359375 70.992188 L 743.714844 -1.253906 Z M 829.265625 26.40625 " clip-rule="nonzero"/></clipPath><clipPath id="72f8ecb04e"><path d="M 829.265625 26.40625 L 805.910156 98.648438 L 720.359375 70.992188 L 743.714844 -1.253906 Z M 829.265625 26.40625 " clip-rule="nonzero"/></clipPath><clipPath id="820f0b7122"><path d="M 766 8 L 816 8 L 816 63 L 766 63 Z M 766 8 " clip-rule="nonzero"/></clipPath><clipPath id="cf0d03666d"><path d="M 829.265625 26.40625 L 805.910156 98.648438 L 720.359375 70.992188 L 743.714844 -1.253906 Z M 829.265625 26.40625 " clip-rule="nonzero"/></clipPath><clipPath id="d00dda7d94"><path d="M 829.265625 26.40625 L 805.910156 98.648438 L 720.359375 70.992188 L 743.714844 -1.253906 Z M 829.265625 26.40625 " clip-rule="nonzero"/></clipPath><clipPath id="5a49fc35d4"><path d="M 744 49 L 816 49 L 816 91 L 744 91 Z M 744 49 " clip-rule="nonzero"/></clipPath><clipPath id="60c6ff1526"><path d="M 829.265625 26.40625 L 805.910156 98.648438 L 720.359375 70.992188 L 743.714844 -1.253906 Z M 829.265625 26.40625 " clip-rule="nonzero"/></clipPath><clipPath id="91bf899d58"><path d="M 829.265625 26.40625 L 805.910156 98.648438 L 720.359375 70.992188 L 743.714844 -1.253906 Z M 829.265625 26.40625 " clip-rule="nonzero"/></clipPath><clipPath id="b468702183"><path d="M 732 35 L 745 35 L 745 78 L 732 78 Z M 732 35 " clip-rule="nonzero"/></clipPath><clipPath id="3ceb8e2c04"><path d="M 829.265625 26.40625 L 805.910156 98.648438 L 720.359375 70.992188 L 743.714844 -1.253906 Z M 829.265625 26.40625 " clip-rule="nonzero"/></clipPath><clipPath id="5bd7f50591"><path d="M 829.265625 26.40625 L 805.910156 98.648438 L 720.359375 70.992188 L 743.714844 -1.253906 Z M 829.265625 26.40625 " clip-rule="nonzero"/></clipPath><clipPath id="846d575e79"><path d="M 732 7 L 767 7 L 767 37 L 732 37 Z M 732 7 " clip-rule="nonzero"/></clipPath><clipPath id="be04f9b834"><path d="M 829.265625 26.40625 L 805.910156 98.648438 L 720.359375 70.992188 L 743.714844 -1.253906 Z M 829.265625 26.40625 " clip-rule="nonzero"/></clipPath><clipPath id="3d1886c720"><path d="M 829.265625 26.40625 L 805.910156 98.648438 L 720.359375 70.992188 L 743.714844 -1.253906 Z M 829.265625 26.40625 " clip-rule="nonzero"/></clipPath><clipPath id="d8dd276e4c"><path d="M 766.621094 8.292969 L 755.410156 42.976562 L 732.582031 35.59375 L 743.796875 0.914062 Z M 766.621094 8.292969 " clip-rule="nonzero"/></clipPath><clipPath id="6a6df1d48c"><path d="M 741 76 L 785 76 L 785 93 L 741 93 Z M 741 76 " clip-rule="nonzero"/></clipPath><clipPath id="7181f29f9d"><path d="M 829.265625 26.40625 L 805.910156 98.648438 L 720.359375 70.992188 L 743.714844 -1.253906 Z M 829.265625 26.40625 " clip-rule="nonzero"/></clipPath><clipPath id="f95c342b8e"><path d="M 829.265625 26.40625 L 805.910156 98.648438 L 720.359375 70.992188 L 743.714844 -1.253906 Z M 829.265625 26.40625 " clip-rule="nonzero"/></clipPath><clipPath id="43f5159790"><path d="M 785.324219 90.527344 L 784.664062 92.5625 L 740.828125 78.390625 L 741.484375 76.355469 Z M 785.324219 90.527344 " clip-rule="nonzero"/></clipPath><clipPath id="5c71c1e176"><path d="M 763 5 L 809 5 L 809 22 L 763 22 Z M 763 5 " clip-rule="nonzero"/></clipPath><clipPath id="ce17747bf4"><path d="M 829.265625 26.40625 L 805.910156 98.648438 L 720.359375 70.992188 L 743.714844 -1.253906 Z M 829.265625 26.40625 " clip-rule="nonzero"/></clipPath><clipPath id="bd85dbfb77"><path d="M 829.265625 26.40625 L 805.910156 98.648438 L 720.359375 70.992188 L 743.714844 -1.253906 Z M 829.265625 26.40625 " clip-rule="nonzero"/></clipPath><clipPath id="e97a904b96"><path d="M 784 60 L 818 60 L 818 93 L 784 93 Z M 784 60 " clip-rule="nonzero"/></clipPath><clipPath id="2d3b8f5478"><path d="M 829.265625 26.40625 L 805.910156 98.648438 L 720.359375 70.992188 L 743.714844 -1.253906 Z M 829.265625 26.40625 " clip-rule="nonzero"/></clipPath><clipPath id="b95924b860"><path d="M 829.265625 26.40625 L 805.910156 98.648438 L 720.359375 70.992188 L 743.714844 -1.253906 Z M 829.265625 26.40625 " clip-rule="nonzero"/></clipPath><clipPath id="27a8df33b8"><path d="M 818.136719 60.832031 L 805.679688 99.355469 L 783.375 92.144531 L 795.832031 53.621094 Z M 818.136719 60.832031 " clip-rule="nonzero"/></clipPath><clipPath id="2e5ce245ab"><path d="M 806 19 L 818 19 L 818 65 L 806 65 Z M 806 19 " clip-rule="nonzero"/></clipPath><clipPath id="6c18b22b8e"><path d="M 829.265625 26.40625 L 805.910156 98.648438 L 720.359375 70.992188 L 743.714844 -1.253906 Z M 829.265625 26.40625 " clip-rule="nonzero"/></clipPath><clipPath id="33f03bb6d6"><path d="M 829.265625 26.40625 L 805.910156 98.648438 L 720.359375 70.992188 L 743.714844 -1.253906 Z M 829.265625 26.40625 " clip-rule="nonzero"/></clipPath><clipPath id="19fd5d7aff"><path d="M 0 78 L 475 78 L 475 260.960938 L 0 260.960938 Z M 0 78 " clip-rule="nonzero"/></clipPath><clipPath id="b22c49d4e7"><rect x="0" width="475" y="0" height="183"/></clipPath><clipPath id="c68aab02c1"><rect x="0" width="434" y="0" height="149"/></clipPath><clipPath id="16b7c61c26"><rect x="0" width="900" y="0" height="261"/></clipPath></defs><g transform="matrix(1, 0, 0, 1, 0, 10)"><g clip-path="url(#16b7c61c26)"><g clip-path="url(#3f68285991)"><g clip-path="url(#7a61ee7cf8)"><g clip-path="url(#72f8ecb04e)"><path fill="#c6202c" d="M 735.527344 36.402344 L 766.585938 8.351562 L 775.347656 49.277344 L 744.289062 77.324219 L 735.527344 36.402344 " fill-opacity="1" fill-rule="evenodd"/></g></g></g><g clip-path="url(#820f0b7122)"><g clip-path="url(#cf0d03666d)"><g clip-path="url(#d00dda7d94)"><path fill="#c6202c" d="M 775.332031 49.308594 L 766.570312 8.386719 L 806.390625 21.257812 L 815.152344 62.183594 L 775.332031 49.308594 " fill-opacity="1" fill-rule="evenodd"/></g></g></g><g clip-path="url(#5a49fc35d4)"><g clip-path="url(#60c6ff1526)"><g clip-path="url(#91bf899d58)"><path fill="#e70012" d="M 744.285156 77.324219 L 775.34375 49.273438 L 815.167969 62.148438 L 784.105469 90.195312 L 744.285156 77.324219 " fill-opacity="1" fill-rule="evenodd"/></g></g></g><g clip-path="url(#b468702183)"><g clip-path="url(#3ceb8e2c04)"><g clip-path="url(#5bd7f50591)"><path fill="#c6202c" d="M 741.480469 76.417969 L 732.71875 35.492188 L 735.519531 36.398438 L 744.28125 77.320312 L 741.480469 76.417969 " fill-opacity="1" fill-rule="evenodd"/></g></g></g><g clip-path="url(#846d575e79)"><g clip-path="url(#be04f9b834)"><g clip-path="url(#3d1886c720)"><g clip-path="url(#d8dd276e4c)"><path fill="#e70012" d="M 732.613281 35.496094 L 763.671875 7.449219 L 766.570312 8.386719 L 735.511719 36.433594 L 732.613281 35.496094 " fill-opacity="1" fill-rule="evenodd"/></g></g></g></g><g clip-path="url(#6a6df1d48c)"><g clip-path="url(#7181f29f9d)"><g clip-path="url(#f95c342b8e)"><g clip-path="url(#43f5159790)"><path fill="#c6202c" d="M 741.976562 78.738281 L 741.480469 76.414062 L 784.097656 90.191406 L 784.597656 92.515625 L 741.976562 78.738281 " fill-opacity="1" fill-rule="evenodd"/></g></g></g></g><g clip-path="url(#5c71c1e176)"><g clip-path="url(#ce17747bf4)"><g clip-path="url(#bd85dbfb77)"><path fill="#e70012" d="M 765.433594 5.859375 L 763.671875 7.449219 L 806.382812 21.257812 L 808.144531 19.664062 L 765.433594 5.859375 " fill-opacity="1" fill-rule="evenodd"/></g></g></g><g clip-path="url(#e97a904b96)"><g clip-path="url(#2d3b8f5478)"><g clip-path="url(#b95924b860)"><g clip-path="url(#27a8df33b8)"><path fill="#c6202c" d="M 784.101562 90.191406 L 816.976562 60.503906 L 817.480469 62.855469 L 784.605469 92.542969 L 784.101562 90.191406 " fill-opacity="1" fill-rule="evenodd"/></g></g></g></g><g clip-path="url(#2e5ce245ab)"><g clip-path="url(#6c18b22b8e)"><g clip-path="url(#33f03bb6d6)"><path fill="#c6202c" d="M 806.390625 21.257812 L 808.222656 19.605469 L 817.480469 62.851562 L 815.652344 64.503906 L 806.390625 21.257812 " fill-opacity="1" fill-rule="evenodd"/></g></g></g><g clip-path="url(#19fd5d7aff)"><g transform="matrix(1, 0, 0, 1, 0, 78)"><g clip-path="url(#b22c49d4e7)"><g fill="#003566" fill-opacity="1"><g transform="translate(0.000018, 144.195409)"><g><path d="M 107.953125 -104.21875 L 107.953125 0 L 88.140625 0 L 36.1875 -63.28125 L 36.1875 0 L 12.359375 0 L 12.359375 -104.21875 L 32.3125 -104.21875 L 84.125 -40.9375 L 84.125 -104.21875 Z M 107.953125 -104.21875 "/></g></g></g><g fill="#003566" fill-opacity="1"><g transform="translate(120.283648, 144.195409)"><g><path d="M 62.828125 1.78125 C 52.015625 1.78125 42.265625 -0.546875 33.578125 -5.203125 C 24.890625 -9.867188 18.085938 -16.296875 13.171875 -24.484375 C 8.265625 -32.679688 5.8125 -41.890625 5.8125 -52.109375 C 5.8125 -62.335938 8.265625 -71.546875 13.171875 -79.734375 C 18.085938 -87.921875 24.890625 -94.347656 33.578125 -99.015625 C 42.265625 -103.679688 52.015625 -106.015625 62.828125 -106.015625 C 73.648438 -106.015625 83.378906 -103.679688 92.015625 -99.015625 C 100.648438 -94.347656 107.445312 -87.921875 112.40625 -79.734375 C 117.375 -71.546875 119.859375 -62.335938 119.859375 -52.109375 C 119.859375 -41.890625 117.375 -32.679688 112.40625 -24.484375 C 107.445312 -16.296875 100.648438 -9.867188 92.015625 -5.203125 C 83.378906 -0.546875 73.648438 1.78125 62.828125 1.78125 Z M 62.828125 -18.765625 C 68.984375 -18.765625 74.539062 -20.175781 79.5 -23 C 84.46875 -25.832031 88.363281 -29.78125 91.1875 -34.84375 C 94.019531 -39.90625 95.4375 -45.660156 95.4375 -52.109375 C 95.4375 -58.566406 94.019531 -64.320312 91.1875 -69.375 C 88.363281 -74.4375 84.46875 -78.382812 79.5 -81.21875 C 74.539062 -84.050781 68.984375 -85.46875 62.828125 -85.46875 C 56.671875 -85.46875 51.113281 -84.050781 46.15625 -81.21875 C 41.195312 -78.382812 37.300781 -74.4375 34.46875 -69.375 C 31.632812 -64.320312 30.21875 -58.566406 30.21875 -52.109375 C 30.21875 -45.660156 31.632812 -39.90625 34.46875 -34.84375 C 37.300781 -29.78125 41.195312 -25.832031 46.15625 -23 C 51.113281 -20.175781 56.671875 -18.765625 62.828125 -18.765625 Z M 62.828125 -18.765625 "/></g></g></g><g fill="#003566" fill-opacity="1"><g transform="translate(245.926427, 144.195409)"><g><path d="M 112.5625 -104.21875 L 67.453125 0 L 43.625 0 L -1.34375 -104.21875 L 24.71875 -104.21875 L 56.421875 -29.78125 L 88.59375 -104.21875 Z M 112.5625 -104.21875 "/></g></g></g><g fill="#003566" fill-opacity="1"><g transform="translate(356.980361, 144.195409)"><g><path d="M 81 -22.328125 L 32.609375 -22.328125 L 23.375 0 L -1.34375 0 L 45.109375 -104.21875 L 68.9375 -104.21875 L 115.546875 0 L 90.234375 0 Z M 73.40625 -40.640625 L 56.875 -80.546875 L 40.34375 -40.640625 Z M 73.40625 -40.640625 "/></g></g></g></g></g></g><g transform="matrix(1, 0, 0, 1, 466, 95)"><g clip-path="url(#c68aab02c1)"><g fill="#3a3a3a" fill-opacity="1"><g transform="translate(4.373333, 115.21435)"><g><path d="M 27.78125 -69.203125 L 0.484375 -69.203125 L 0.484375 -85.296875 L 74.8125 -85.296875 L 74.8125 -69.203125 L 47.515625 -69.203125 L 47.515625 0 L 27.78125 0 Z M 27.78125 -69.203125 "/></g></g></g><g fill="#3a3a3a" fill-opacity="1"><g transform="translate(79.650961, 115.21435)"><g><path d="M 76.15625 -15.84375 L 76.15625 0 L 10.109375 0 L 10.109375 -85.296875 L 74.5625 -85.296875 L 74.5625 -69.453125 L 29.734375 -69.453125 L 29.734375 -50.9375 L 69.328125 -50.9375 L 69.328125 -35.578125 L 29.734375 -35.578125 L 29.734375 -15.84375 Z M 76.15625 -15.84375 "/></g></g></g><g fill="#3a3a3a" fill-opacity="1"><g transform="translate(161.384429, 115.21435)"><g><path d="M 50.9375 1.46875 C 42.238281 1.46875 34.375 -0.421875 27.34375 -4.203125 C 20.320312 -7.984375 14.800781 -13.222656 10.78125 -19.921875 C 6.757812 -26.617188 4.75 -34.191406 4.75 -42.640625 C 4.75 -51.085938 6.757812 -58.660156 10.78125 -65.359375 C 14.800781 -72.066406 20.320312 -77.304688 27.34375 -81.078125 C 34.375 -84.859375 42.273438 -86.75 51.046875 -86.75 C 58.441406 -86.75 65.125 -85.445312 71.09375 -82.84375 C 77.0625 -80.25 82.078125 -76.515625 86.140625 -71.640625 L 73.46875 -59.953125 C 67.707031 -66.609375 60.5625 -69.9375 52.03125 -69.9375 C 46.75 -69.9375 42.035156 -68.78125 37.890625 -66.46875 C 33.742188 -64.15625 30.515625 -60.925781 28.203125 -56.78125 C 25.890625 -52.632812 24.734375 -47.921875 24.734375 -42.640625 C 24.734375 -37.359375 25.890625 -32.644531 28.203125 -28.5 C 30.515625 -24.363281 33.742188 -21.140625 37.890625 -18.828125 C 42.035156 -16.515625 46.75 -15.359375 52.03125 -15.359375 C 60.5625 -15.359375 67.707031 -18.726562 73.46875 -25.46875 L 86.140625 -13.765625 C 82.078125 -8.804688 77.039062 -5.023438 71.03125 -2.421875 C 65.019531 0.171875 58.320312 1.46875 50.9375 1.46875 Z M 50.9375 1.46875 "/></g></g></g><g fill="#3a3a3a" fill-opacity="1"><g transform="translate(250.670039, 115.21435)"><g><path d="M 88.34375 -85.296875 L 88.34375 0 L 68.59375 0 L 68.59375 -34.96875 L 29.859375 -34.96875 L 29.859375 0 L 10.109375 0 L 10.109375 -85.296875 L 29.859375 -85.296875 L 29.859375 -51.65625 L 68.59375 -51.65625 L 68.59375 -85.296875 Z M 88.34375 -85.296875 "/></g></g></g><g fill="#3a3a3a" fill-opacity="1"><g transform="translate(349.091293, 115.21435)"><g><path d="M 48.609375 -66.53125 C 56.734375 -66.53125 63.289062 -64.09375 68.28125 -59.21875 C 73.28125 -54.34375 75.78125 -47.113281 75.78125 -37.53125 L 75.78125 0 L 56.78125 0 L 56.78125 -34.609375 C 56.78125 -39.804688 55.640625 -43.679688 53.359375 -46.234375 C 51.085938 -48.796875 47.800781 -50.078125 43.5 -50.078125 C 38.707031 -50.078125 34.890625 -48.59375 32.046875 -45.625 C 29.203125 -42.664062 27.78125 -38.257812 27.78125 -32.40625 L 27.78125 0 L 8.765625 0 L 8.765625 -90.40625 L 27.78125 -90.40625 L 27.78125 -58.734375 C 30.300781 -61.242188 33.347656 -63.171875 36.921875 -64.515625 C 40.492188 -65.859375 44.390625 -66.53125 48.609375 -66.53125 Z M 48.609375 -66.53125 "/></g></g></g></g></g></g></g></svg>